<svg xmlns="http://www.w3.org/2000/svg" viewBox="0 0 120 120" fill="none">
  <!-- Background circle -->
  <circle cx="60" cy="60" r="56" fill="#FFCC00"/>
  
  <!-- Car body -->
  <path d="M30 80 L30 58 C30 50 36 44 44 44 L76 44 C84 44 90 50 90 58 L90 80" stroke="#000000" stroke-width="6" stroke-linecap="round" stroke-linejoin="round" fill="none"/>
  
  <!-- Windows -->
  <path d="M40 54 L40 48 L52 48 L56 54 Z" fill="#000000"/>
  <path d="M60 54 L60 48 L72 48 L74 54 Z" fill="#000000"/>
  
  <!-- Wheels -->
  <circle cx="42" cy="80" r="10" stroke="#000000" stroke-width="4" fill="none"/>
  <circle cx="42" cy="80" r="4" fill="#000000"/>
  <circle cx="78" cy="80" r="10" stroke="#000000" stroke-width="4" fill="none"/>
  <circle cx="78" cy="80" r="4" fill="#000000"/>
  
  <!-- Sparkle accents -->
  <path d="M22 30 L22 22 L14 22" stroke="#000000" stroke-width="3" stroke-linecap="round"/>
  <path d="M22 30 L22 38 L14 38" stroke="#000000" stroke-width="3" stroke-linecap="round"/>
  <path d="M98 22 L106 22 L106 30" stroke="#000000" stroke-width="3" stroke-linecap="round"/>
  <path d="M98 38 L106 38 L106 30" stroke="#000000" stroke-width="3" stroke-linecap="round"/>
</svg>